<svg width="176" height="19" viewBox="0 0 176 19" fill="none" xmlns="http://www.w3.org/2000/svg">
<path d="M7.6044 18.9495C6.13929 18.9495 4.74911 18.7128 3.42968 18.2394C2.11025 17.7659 0.965638 17.0402 0 16.0623L3.02594 13.2682C3.77931 13.9318 4.57846 14.4634 5.42755 14.8554C6.27665 15.2473 7.25061 15.4452 8.34944 15.4452C9.22767 15.4452 9.93525 15.2978 10.4763 14.999C11.0174 14.7001 11.3379 14.2888 11.4378 13.761L11.4461 13.7106C11.4961 13.4544 11.4878 13.2294 11.4212 13.0353C11.3587 12.8413 11.2006 12.655 10.9508 12.4881C10.7011 12.3174 10.339 12.1466 9.86865 11.9759C9.39832 11.8051 8.77815 11.6266 8.00814 11.4403C7.07996 11.2191 6.24751 10.9708 5.51496 10.6991C4.77824 10.4275 4.17472 10.0899 3.70439 9.69014C3.22989 9.29042 2.90108 8.79369 2.70961 8.19606C2.52231 7.60231 2.50983 6.86109 2.67632 5.97629L2.68464 5.92584C2.83864 5.11089 3.14249 4.37355 3.59201 3.71771C4.04153 3.06187 4.60759 2.49529 5.2902 2.01796C5.9728 1.54063 6.74698 1.17584 7.61272 0.919714C8.48263 0.663586 9.41081 0.535522 10.3973 0.535522C11.8041 0.535522 13.0611 0.733439 14.1682 1.12927C15.2712 1.52511 16.2494 2.09169 17.0985 2.82903L14.3389 5.80554C13.5814 5.25836 12.8238 4.8276 12.058 4.51326C11.2963 4.19892 10.5013 4.03981 9.67719 4.03981C8.85307 4.03981 8.20792 4.18728 7.74175 4.48609C7.27558 4.78491 6.99671 5.15358 6.91347 5.59598L6.90514 5.64643C6.85104 5.93748 6.86352 6.18585 6.9426 6.39929C7.02169 6.61273 7.20066 6.80288 7.47953 6.97364C7.7584 7.14439 8.15381 7.30738 8.66577 7.45872C9.17772 7.61395 9.82287 7.79247 10.6095 7.99426C11.5335 8.23099 12.3493 8.50264 13.0486 8.79757C13.752 9.09639 14.3222 9.45341 14.7676 9.86865C15.2088 10.2878 15.5085 10.7767 15.6708 11.3356C15.829 11.8983 15.8373 12.5696 15.6875 13.3535L15.6791 13.404C15.5126 14.2888 15.188 15.0766 14.7135 15.7673C14.239 16.4581 13.648 17.0363 12.9404 17.5059C12.2328 17.9755 11.4295 18.3325 10.5263 18.577C9.61892 18.8253 8.64496 18.9495 7.6044 18.9495Z" fill="#EFF5FA"/>
<path d="M20.5828 18.9496C18.9928 18.9496 17.8482 18.4994 17.1489 17.5952C16.4497 16.691 16.254 15.4453 16.5537 13.8581L18.2311 4.97897H22.4017L20.9532 12.6473C20.7784 13.5709 20.8658 14.2655 21.2154 14.739C21.5651 15.2085 22.1436 15.4453 22.9469 15.4453C23.7502 15.4453 24.4328 15.2124 24.9864 14.739C25.54 14.2694 25.9063 13.5709 26.0811 12.6473L27.5295 4.97897H31.7001L29.107 18.6934H24.9406L25.3069 16.7647C25.0155 17.0519 24.7034 17.3274 24.3704 17.5913C24.0374 17.8552 23.6795 18.088 23.2924 18.2898C22.9053 18.4916 22.4932 18.6546 22.0479 18.771C21.5984 18.8875 21.1155 18.9496 20.5828 18.9496Z" fill="#EFF5FA"/>
<path d="M33.2415 4.97897H37.4121L37.0458 6.90768C37.3371 6.62051 37.6493 6.34498 37.9823 6.08109C38.3153 5.8172 38.6732 5.58436 39.0603 5.38256C39.4474 5.18076 39.8595 5.01777 40.3048 4.90135C40.746 4.78493 41.233 4.72284 41.7658 4.72284C43.3557 4.72284 44.5003 5.17688 45.1996 6.07721C45.8989 6.98142 46.0986 8.22713 45.799 9.81434L44.1216 18.6934H39.951L41.3995 11.0251C41.5743 10.1015 41.4869 9.40687 41.1373 8.93342C40.7876 8.46385 40.2091 8.22713 39.4058 8.22713C38.6025 8.22713 37.9199 8.46385 37.3663 8.93342C36.8127 9.40299 36.4464 10.1015 36.2716 11.0251L34.8232 18.6934H30.6484L33.2415 4.97897Z" fill="#EFF5FA"/>
<path d="M50.6531 18.9496C49.6084 18.9496 48.5761 18.7827 47.5522 18.4489C46.5283 18.1152 45.5876 17.5913 44.7344 16.8734L47.0028 14.316C47.7062 14.8632 48.4263 15.2706 49.1713 15.5423C49.9164 15.8139 50.6364 15.9536 51.3315 15.9536C51.935 15.9536 52.3971 15.8605 52.7134 15.6703C53.0339 15.4841 53.2212 15.2357 53.2794 14.9291L53.2878 14.8787C53.3252 14.673 53.2794 14.4945 53.1421 14.3431C53.0047 14.1879 52.8091 14.0598 52.5427 13.9473C52.2805 13.8348 51.9767 13.73 51.6312 13.6291C51.2857 13.5282 50.9195 13.4156 50.5407 13.2953C50.0537 13.1595 49.5709 12.9926 49.0839 12.7947C48.6011 12.6007 48.1765 12.3446 47.8144 12.0263C47.4523 11.712 47.1818 11.3239 47.007 10.8621C46.828 10.4003 46.803 9.83762 46.9279 9.17402L46.9362 9.12357C47.0694 8.42504 47.3274 7.80801 47.7104 7.26859C48.0975 6.73305 48.5678 6.27512 49.1214 5.89869C49.6749 5.52226 50.2993 5.24285 50.9819 5.0527C51.6687 4.86642 52.3846 4.77328 53.1338 4.77328C54.0661 4.77328 54.986 4.91299 55.8933 5.19628C56.8007 5.47958 57.6082 5.86765 58.3199 6.3605L56.218 9.04596C55.5604 8.654 54.9069 8.34355 54.2534 8.1107C53.5999 7.88174 53.0089 7.76532 52.4803 7.76532C51.9683 7.76532 51.5688 7.85458 51.2774 8.03309C50.9861 8.2116 50.8154 8.43668 50.7655 8.71221L50.7571 8.76266C50.7197 8.94894 50.7738 9.11581 50.9111 9.2594C51.0485 9.40298 51.24 9.53881 51.4938 9.67075C51.7436 9.79882 52.0349 9.923 52.3721 10.0394C52.7051 10.1597 53.063 10.28 53.4418 10.3964C53.9246 10.5517 54.4116 10.7341 54.9027 10.9475C55.3939 11.1609 55.8184 11.421 56.1805 11.7275C56.5426 12.0341 56.8215 12.4105 57.0088 12.8529C57.2003 13.2953 57.2336 13.8348 57.117 14.4634L57.1087 14.5139C56.963 15.2823 56.6966 15.942 56.3096 16.4969C55.9225 17.0519 55.4355 17.5059 54.8569 17.8668C54.2784 18.2239 53.6249 18.4955 52.909 18.674C52.1931 18.8564 51.4397 18.9496 50.6531 18.9496Z" fill="#EFF5FA"/>
<path d="M60.6585 0H64.829L63.5221 6.90768C63.8135 6.62051 64.1256 6.34498 64.4586 6.08109C64.7916 5.8172 65.1495 5.58435 65.5366 5.38256C65.9237 5.18076 66.3358 5.01777 66.7811 4.90135C67.2223 4.78493 67.7093 4.72284 68.2421 4.72284C69.832 4.72284 70.9767 5.17688 71.6759 6.07721C72.3752 6.98141 72.575 8.22712 72.2753 9.81434L70.5979 18.6934H66.4273L67.8758 11.0251C68.0506 10.1015 67.9632 9.40686 67.6136 8.93342C67.2639 8.46385 66.6854 8.22712 65.8821 8.22712C65.0788 8.22712 64.3962 8.46385 63.8426 8.93342C63.289 9.40298 62.9227 10.1015 62.7479 11.0251L61.2995 18.6934H57.1289L60.6585 0Z" fill="#EFF5FA"/>
<path d="M74.8121 4.97894H78.9826L76.3896 18.6934H72.2148L74.8121 4.97894ZM75.6404 0.0155029H80.0315L79.378 3.46934H74.9869L75.6404 0.0155029Z" fill="#EFF5FA"/>
<path d="M80.7103 4.97897H84.8808L84.5145 6.90768C84.8059 6.62051 85.1181 6.34498 85.451 6.08109C85.784 5.8172 86.142 5.58436 86.5291 5.38256C86.9162 5.18076 87.3282 5.01777 87.7736 4.90135C88.2148 4.78493 88.7017 4.72284 89.2345 4.72284C90.8245 4.72284 91.9691 5.17688 92.6684 6.07721C93.3676 6.98142 93.5674 8.22713 93.2636 9.81434L91.5862 18.6934H87.4156L88.8641 11.0251C89.0389 10.1015 88.9515 9.40687 88.6019 8.93342C88.2522 8.46385 87.6737 8.22713 86.8704 8.22713C86.0671 8.22713 85.3844 8.46385 84.8309 8.93342C84.2773 9.40299 83.911 10.1015 83.7362 11.0251L82.2877 18.6934H78.1172L80.7103 4.97897Z" fill="#EFF5FA"/>
<path d="M99.9264 19C98.8275 19 97.8411 18.8293 96.9629 18.4878C96.0846 18.1462 95.3646 17.6612 94.7943 17.0286C94.2283 16.3999 93.8329 15.6509 93.6123 14.7894C93.3917 13.9279 93.3792 12.9694 93.579 11.9099L93.5873 11.8595C93.7704 10.8854 94.1242 9.96569 94.6445 9.09641C95.1648 8.22713 95.8058 7.46651 96.5716 6.81843C97.3333 6.17035 98.1949 5.6581 99.1522 5.28167C100.109 4.90524 101.129 4.71896 102.207 4.71896C103.431 4.71896 104.455 4.92464 105.275 5.33212C106.095 5.73959 106.736 6.29065 107.198 6.98142C107.66 7.67219 107.951 8.46386 108.064 9.3603C108.176 10.2567 108.143 11.1881 107.959 12.1622C107.93 12.3174 107.893 12.4765 107.855 12.6473C107.814 12.818 107.768 12.9965 107.714 13.1828H97.479C97.5123 14.0715 97.8036 14.739 98.3489 15.193C98.8941 15.6471 99.635 15.8721 100.567 15.8721C101.262 15.8721 101.908 15.7596 102.499 15.5384C103.09 15.3172 103.722 14.9602 104.401 14.4634L106.415 16.4349C105.57 17.2382 104.609 17.863 103.535 18.317C102.465 18.7749 101.262 19 99.9264 19ZM104.172 10.7612C104.209 9.89196 104.014 9.18567 103.585 8.65013C103.156 8.11459 102.503 7.84294 101.625 7.84294C100.746 7.84294 99.9888 8.10683 99.3478 8.63461C98.7068 9.16239 98.224 9.87256 97.891 10.7574H104.172V10.7612Z" fill="#EFF5FA"/>
<path d="M114.133 4.40072H108.289L108.976 0.768372H140.842L140.155 4.40072H118.357L115.656 18.6779H111.432L114.133 4.40072Z" fill="#EFF5FA"/>
<path d="M159.755 0.764496H163.98L162.64 7.85069H170.431L171.772 0.764496H175.996L172.608 18.674H168.384L169.745 11.483H161.953L160.592 18.674H156.367L159.755 0.764496Z" fill="#EFF5FA"/>
<path d="M129.749 4.38909H140.384L141.066 0.764496H126.128L125.441 4.38909H129.749Z" fill="#EFF5FA"/>
<path d="M127.038 18.674H137.669L138.355 15.0533H123.417L122.73 18.674H127.038Z" fill="#EFF5FA"/>
<path d="M128.351 11.5296H137.246L137.932 7.90891H124.726L124.043 11.5335H128.351V11.5296Z" fill="#EFF5FA"/>
<path d="M150.066 4.38908H157.746L158.424 0.768372H150.766C150.004 0.768372 149.251 0.857628 148.514 1.01674C144.098 1.94811 140.273 5.48733 139.469 9.72507C138.67 13.9628 141.155 17.502 145.217 18.4334C145.896 18.5886 146.616 18.6818 147.378 18.6818H155.028L155.694 15.0611H148.135C144.872 15.0611 142.591 12.7714 143.165 9.72895C143.74 6.67871 146.803 4.38908 150.066 4.38908Z" fill="#EFF5FA"/>
</svg>
